# xmcd
#
# Track frame offsets:
# 150
# 21895
# 40783
# 67377
# 86699
# 111621
# 131393
# 150639
# 170660
# 191439
# 209379
# 230257
# 251604
# 275660
# 297012
# 315312
# 336955
#
# Disc length: 4701 seconds
#
#
# Revision: 1
# Processed by: cddbd v1.5.1PL2 Copyright (c) Steve Scherf et al.
# Submitted via: FreeRIP 2.945 
#
DISCID=fa125b11
DTITLE=Quang Dung - The Best of Quang Dung - Ve Day Em Hoi
DYEAR=2003
DGENRE=Viet
TTITLE0=Con Gio Thoang
TTITLE1=Mua Dong Co Don
TTITLE2=Bien Can
TTITLE3=Tinh Khong Nguoi
TTITLE4=Em Da Xa Toi
TTITLE5=Con Ai Voi Ai
TTITLE6=Tinh Khuc Duoi Mua
TTITLE7=Bien Nghin Thu O Lai
TTITLE8=Vi Do La Em
TTITLE9=Lac Mat Mua Xuan w/ Khanh Du
TTITLE10=Tinh Tho
TTITLE11=Con Ta Voi Nong Nan
TTITLE12=Dieu Blues Cho Ly Biet
TTITLE13=Me Dau Yeu
TTITLE14=Chieu Mot Minh Qua Pho
TTITLE15=Ve Day Em Hoi
TTITLE16=Ngo Vang Xon Xao
EXTD=
EXTT0=
EXTT1=
EXTT2=
EXTT3=
EXTT4=
EXTT5=
EXTT6=
EXTT7=
EXTT8=
EXTT9=
EXTT10=
EXTT11=
EXTT12=
EXTT13=
EXTT14=
EXTT15=
EXTT16=
PLAYORDER=
